<?xml version="1.0" encoding="UTF-8" standalone="no"?>
<!-- Created with Inkscape (http://www.inkscape.org/) -->

<svg
   width="420.0mm"
   height="297.0mm"
   viewBox="0 0 420.0 297.0"
   version="1.1"
   id="SVGRoot"
   sodipodi:docname="GioXdaZ.svg"
   inkscape:export-filename="E:\inkscape\New Logo GioXdaZ.png"
   inkscape:export-xdpi="96"
   inkscape:export-ydpi="96"
   inkscape:version="1.1 (c68e22c387, 2021-05-23)"
   xmlns:inkscape="http://www.inkscape.org/namespaces/inkscape"
   xmlns:sodipodi="http://sodipodi.sourceforge.net/DTD/sodipodi-0.dtd"
   xmlns="http://www.w3.org/2000/svg"
   xmlns:svg="http://www.w3.org/2000/svg">
  <sodipodi:namedview
     id="namedview829"
     pagecolor="#ffffff"
     bordercolor="#666666"
     borderopacity="1.0"
     inkscape:pageshadow="2"
     inkscape:pageopacity="0"
     inkscape:pagecheckerboard="0"
     inkscape:document-units="mm"
     showgrid="false"
     inkscape:zoom="0.5"
     inkscape:cx="541"
     inkscape:cy="549"
     inkscape:window-width="1920"
     inkscape:window-height="1041"
     inkscape:window-x="0"
     inkscape:window-y="0"
     inkscape:window-maximized="0"
     inkscape:current-layer="layer1"
     showguides="true"
     inkscape:guide-bbox="true" />
  <defs
     id="defs824">
    <linearGradient
       id="linearGradient18460"
       inkscape:swatch="gradient">
      <stop
         style="stop-color:#000000;stop-opacity:1;"
         offset="0"
         id="stop18456" />
      <stop
         style="stop-color:#000000;stop-opacity:0;"
         offset="1"
         id="stop18458" />
    </linearGradient>
  </defs>
  <g
     inkscape:label="Capa 1"
     inkscape:groupmode="layer"
     id="layer1">
    <g
       id="g1332">
      <g
         id="g104315"
         transform="matrix(2.0191197,0,0,1.0635938,726.94513,-31.876808)">
        <path
           style="fill:#7b0000;fill-opacity:1;stroke:#7b0000;stroke-width:0.264583px;stroke-linecap:butt;stroke-linejoin:miter;stroke-opacity:1"
           d="m -350.81421,208.44495 c -7.19322,3.03914 -5.40424,6.86559 -5.27926,8.00402 1.22082,2.00904 2.79109,3.1121 5.74972,2.91573 5.44166,0.45553 7.9962,-9.64083 -0.47046,-10.91975 z"
           id="path70117"
           sodipodi:nodetypes="cccc" />
        <path
           style="fill:#7b0000;fill-opacity:1;stroke:#7b0000;stroke-width:0.264583px;stroke-linecap:butt;stroke-linejoin:miter;stroke-opacity:1"
           d="m -343.78941,185.75272 c 0.0408,-0.49231 1.13428,-1.85394 2.49061,-1.87328 0.90822,0.83389 2.01061,2.04765 1.08564,3.49111 -0.84994,0.82683 -2.98587,1.21549 -3.57625,-1.61783 z"
           id="path70119"
           sodipodi:nodetypes="cccc" />
        <path
           style="fill:#7b0000;fill-opacity:1;stroke:#7b0000;stroke-width:0.264583px;stroke-linecap:butt;stroke-linejoin:miter;stroke-opacity:1"
           d="m -295.74858,173.69468 c -0.0573,6.32058 1.91086,5.40757 3.4464,6.03954 1.9485,-0.17556 3.52117,-1.5285 3.97618,-4.20758 -0.58307,-1.5522 -0.47565,-3.28052 -3.07483,-3.88498 -1.1704,0.0906 -2.42742,0.0732 -4.34775,2.05302 z"
           id="path70121"
           sodipodi:nodetypes="ccccc" />
        <path
           style="fill:#7b0000;fill-opacity:1;stroke:#7b0000;stroke-width:0.264583px;stroke-linecap:butt;stroke-linejoin:miter;stroke-opacity:1"
           d="m -288.04474,162.34403 c -0.10881,2.24848 1.23834,3.42871 2.07369,3.54527 2.21758,-0.11199 2.87424,-1.60062 3.20556,-2.96384 -0.42472,-1.82761 -1.30605,-2.28537 -2.11411,-2.96295 -1.06572,0.6066 -2.54686,0.65632 -3.16514,2.38152 z"
           id="path70123"
           sodipodi:nodetypes="ccccc" />
        <path
           style="fill:#7b0000;fill-opacity:1;stroke:#7b0000;stroke-width:0.264583px;stroke-linecap:butt;stroke-linejoin:miter;stroke-opacity:1"
           d="m -344.31773,215.76541 c -0.38183,0.13316 -0.45156,0.099 -0.48055,1.46753 0.42435,0.43482 0.63925,0.70318 1.22174,0.11009 0.11984,-0.77603 -0.37571,-1.44017 -0.74119,-1.57762 z"
           id="path70125"
           sodipodi:nodetypes="cccc" />
        <path
           style="fill:#7b0000;fill-opacity:1;stroke:#7b0000;stroke-width:0.264583px;stroke-linecap:butt;stroke-linejoin:miter;stroke-opacity:1"
           d="m -332.03885,208.57267 c 0.2051,0.35486 0.45065,0.63556 0.89408,0.55348 0.60918,-0.4628 0.70922,-1.07778 0.6386,-1.36239 -0.71178,0.0256 -1.48798,0.36149 -1.53268,0.80891 z"
           id="path70127"
           sodipodi:nodetypes="cccc" />
        <path
           style="fill:#7b0000;fill-opacity:1;stroke:#7b0000;stroke-width:0.264583px;stroke-linecap:butt;stroke-linejoin:miter;stroke-opacity:1"
           d="m -341.61812,210.23308 c 1.26638,1.00321 2.92885,0.0564 4.42775,-0.0851 1.62529,-0.19649 2.2215,-0.88639 3.1931,-1.48236 1.87186,-0.34945 0.75277,0.94512 0.51045,1.30218 -3.29456,0.66997 -4.4311,1.89538 -6.34316,3.28813 -1.39204,0.4457 -2.43066,2.01259 -4.34261,0.80891 -0.44413,-0.45725 -0.57646,-0.91551 0.16429,-2.89658 0.33322,-0.97526 1.31648,-0.15621 1.5088,-0.60725 0.20324,-0.72972 -0.0761,-1.30085 -0.94932,-1.86059 -0.91605,-0.68087 -3.66755,-4.25406 -4.21488,-8.34461 0.25551,-2.36544 0.22209,-6.48445 6.62098,-8.68993 2.11822,-0.69002 3.32988,0.86464 4.70384,0.31049 1.47012,-0.68699 2.16881,-2.22068 3.97236,-2.55919 2.41866,0.71847 4.02714,4.59923 4.25701,5.60434 -0.40202,2.84671 0.37287,2.49419 1.1121,1.83846 1.41035,-2.40298 2.84827,-4.87318 5.46413,-6.329 -0.0426,-1.51849 -1.78385,-1.55222 0.0529,-4.48022 3.78899,-6.76712 7.17815,-6.41151 10.63072,0.095 0.31639,0.71347 0.29643,1.40753 0.39847,2.01018 0.37232,2.19896 5.84741,2.53547 7.78618,2.64505 8.54715,0.0854 9.54284,-3.33714 23.50373,-5.00571 24.32906,-4.15465 45.45719,-8.30474 72.71731,-12.77236 4.8923,-0.43064 6.85729,-3.15607 10.85651,-3.53369 6.75988,0.18329 1.98403,5.86525 0.51089,6.8545 -3.33161,2.73839 -6.58871,3.26504 -8.00401,-0.21287 0.73348,-4.18896 -4.35324,-1.61569 -4.81351,-1.65311 -2.33188,0.65528 -4.33099,0.76807 -6.4739,1.13705 -4.44836,0.19512 -6.09087,1.0776 -9.02065,1.79329 -19.47104,3.617 -37.29262,7.92287 -55.85779,12.00602 -4.6832,1.25568 -9.36641,2.68591 -14.04961,3.53369 -2.56151,0.33812 -2.20376,1.72865 -2.8525,2.1713 -1.95001,0.81305 0.27209,-1.48147 -4.00198,-0.85149 -10.31543,1.55596 -0.92852,2.37409 -8.7807,4.47763 -6.89792,3.10563 -2.28934,3.90148 -2.92732,5.91056 -0.20998,3.92257 -2.59193,1.9145 -3.40596,4.76835 -0.67374,1.42695 -2.22504,1.35291 -2.5119,1.14951 -0.62061,0.0153 -0.89843,-0.30768 -0.72377,-1.06436 2.85309,-0.45352 4.21464,-3.48875 4.72578,-4.34261 -2.63255,0.0605 -4.82991,3.47127 -6.003,4.98122 -0.35526,-0.0244 -0.99533,-0.11268 -1.47538,-0.62158 -0.60169,-0.63785 -4.49003,-2.88343 -6.60438,-1.8356 -0.62192,0.30821 -1.51542,-0.11211 -1.45694,-0.2463 0.31949,-1.31977 2.24925,-1.56642 2.46931,-2.74606 -1.46173,-1.09984 -3.87297,-0.37334 -4.38518,-4.002 0.022,-0.38928 0.46755,-0.58221 0.80894,-0.80892 -0.4442,-0.46544 -1.32071,-1.62844 -2.17131,-1.36239 -1.06573,1.77934 -0.36338,3.93183 -1.4901,5.44955 -2.1118,3.0954 -6.60399,3.03543 -7.53571,6.25843 z"
           id="path70129"
           sodipodi:nodetypes="ccccccccccccccccccsccccccccccccccccccccsscccccccc" />
        <path
           style="fill:#7b0000;fill-opacity:1;stroke:#7b0000;stroke-width:0.264583px;stroke-linecap:butt;stroke-linejoin:miter;stroke-opacity:1"
           d="m -304.17382,184.77351 c -0.6277,0.0936 -0.75493,0.42657 -0.7344,0.8302 0.18558,0.59359 0.49957,0.6002 0.88343,0.28737 0.37307,-0.47821 0.14922,-0.80719 -0.14903,-1.11757 z"
           id="path70131"
           sodipodi:nodetypes="cccc" />
        <path
           style="fill:#7b0000;fill-opacity:1;stroke:#7b0000;stroke-width:0.264583px;stroke-linecap:butt;stroke-linejoin:miter;stroke-opacity:1"
           d="m -300.21438,188.42428 c -0.58746,0.353 -0.97251,0.75226 -0.57475,1.33045 0.44889,0.24327 0.6908,-0.1344 0.94729,-0.46832 0.2524,-0.52274 0.0546,-0.76408 -0.37254,-0.86213 z"
           id="path70133"
           sodipodi:nodetypes="cccc" />
        <path
           style="fill:#7b0000;fill-opacity:1;stroke:#7b0000;stroke-width:0.264583px;stroke-linecap:butt;stroke-linejoin:miter;stroke-opacity:1"
           d="m -298.66039,188.05175 c 0.97781,0.0818 2.50901,-0.88752 2.37352,-1.49012 -0.55713,-0.48982 -0.95476,-0.41789 -1.61784,0.0106 -0.33766,0.4074 -0.96089,0.52921 -0.75568,1.47947 z"
           id="path70135"
           sodipodi:nodetypes="cccc" />
        <path
           style="fill:#7b0000;fill-opacity:1;stroke:#7b0000;stroke-width:0.264583px;stroke-linecap:butt;stroke-linejoin:miter;stroke-opacity:1"
           d="m -296.36565,197.40826 c 0.33133,-0.1513 1.13021,-0.37893 1.74984,-0.50101 -0.30972,0.52431 -0.69811,1.05878 -1.57528,1.19209 -0.56457,0.008 -0.59446,-0.45483 -0.17456,-0.69108 z"
           id="path70137"
           sodipodi:nodetypes="cccc" />
        <path
           style="fill:#7b0000;fill-opacity:1;stroke:#7b0000;stroke-width:0.264583px;stroke-linecap:butt;stroke-linejoin:miter;stroke-opacity:1"
           d="m -304.15251,198.52508 c -1.23838,0.50718 -2.41094,1.77259 -2.09089,2.78454 1.09024,3.30538 3.67703,1.07559 3.8287,-0.15525 -0.25293,-2.33143 -1.3314,-2.77964 -1.73781,-2.62929 z"
           id="path70139"
           sodipodi:nodetypes="cccc" />
        <path
           style="fill:#7b0000;fill-opacity:1;stroke:#7b0000;stroke-width:0.264583px;stroke-linecap:butt;stroke-linejoin:miter;stroke-opacity:1"
           d="m -293.4663,204.29393 c -1.409,0.93547 -2.03417,1.50861 -2.08616,3.23567 0.58898,0.89182 1.48304,0.95993 2.63961,0.31926 0.59963,-1.37722 0.83607,-3.18765 -0.55345,-3.55493 z"
           id="path70141"
           sodipodi:nodetypes="cccc" />
        <path
           style="fill:#7b0000;fill-opacity:1;stroke:#7b0000;stroke-width:0.264583px;stroke-linecap:butt;stroke-linejoin:miter;stroke-opacity:1"
           d="m -298.40496,209.25387 c -0.60629,0.5766 -0.14429,1.57992 0.38322,2.36289 0.4477,-0.065 0.69387,-0.49686 0.74507,-1.12823 0.0402,-0.93552 -0.31386,-1.16144 -1.12829,-1.23466 z"
           id="path70143"
           sodipodi:nodetypes="cccc" />
        <path
           style="fill:#7b0000;fill-opacity:1;stroke:#7b0000;stroke-width:0.264583px;stroke-linecap:butt;stroke-linejoin:miter;stroke-opacity:1"
           d="m -287.84648,207.89148 c -0.47668,2.16547 0.1149,3.26268 1.10694,3.95943 0.67519,0.0269 2.10492,-0.62349 2.63847,-0.65155 6.5891,-0.3466 -0.15058,-7.21254 -3.74541,-3.30788 z"
           id="path70145"
           sodipodi:nodetypes="ccsc" />
        <path
           style="fill:#7b0000;fill-opacity:1;stroke:#7b0000;stroke-width:0.264583px;stroke-linecap:butt;stroke-linejoin:miter;stroke-opacity:1"
           d="m -286.35636,199.31271 c 0.57424,-1.13615 1.72985,-1.85347 3.23566,-0.85149 1.1296,1.80476 0.3172,3.94917 -1.51139,3.98072 -0.85539,-0.048 -2.09471,-0.69323 -1.72427,-3.12923 z"
           id="path70147"
           sodipodi:nodetypes="cccc" />
        <path
           style="fill:#7b0000;fill-opacity:1;stroke:#7b0000;stroke-width:0.264583px;stroke-linecap:butt;stroke-linejoin:miter;stroke-opacity:1"
           d="m -288.35736,179.40911 c 0.44315,-0.38543 0.79963,-0.90087 1.70296,-0.59604 0.42972,0.92642 0.0986,1.092 -0.17028,1.31981 -0.75624,0.24943 -1.06952,-0.38704 -1.53268,-0.72377 z"
           id="path70149"
           sodipodi:nodetypes="cccc" />
        <path
           style="fill:#7b0000;fill-opacity:1;stroke:#7b0000;stroke-width:0.264583px;stroke-linecap:butt;stroke-linejoin:miter;stroke-opacity:1"
           d="m -278.73552,173.7467 c 1.10258,-0.37412 2.30843,-0.52693 2.87441,-2.05088 -0.93948,-0.46963 -0.92452,-0.86505 -2.11537,-0.18277 -0.90163,0.96076 -0.78891,1.58339 -0.75904,2.23365 z"
           id="path70151"
           sodipodi:nodetypes="cccc" />
        <path
           style="fill:#7b0000;fill-opacity:1;stroke:#7b0000;stroke-width:0.264583px;stroke-linecap:butt;stroke-linejoin:miter;stroke-opacity:1"
           d="m -262.47204,189.92503 c -1.26116,-0.92154 -2.04952,-1.17657 -2.98966,0.47002 -0.26765,0.52477 -0.0766,2.65303 1.54212,2.25475 1.02092,-0.75107 1.83336,-1.24153 2.21388,-1.19209 1.10686,3.00713 2.02588,2.44533 2.98022,2.55447 1.52063,0.4153 2.28115,-0.49961 3.19309,-1.14951 2.49086,8.14017 7.88571,4.93707 8.00401,5.19409 5.92022,-1.3453 6.21727,-7.40152 5.79014,-8.94065 -1.44295,-4.53606 -5.48226,-6.15746 -8.42976,-5.10894 -3.22617,1.47238 -3.62334,4.56346 -5.87529,4.85349 -0.0878,-1.75492 -2.23368,-1.76959 -2.76734,-1.36238 -1.67204,0.77335 -2.44094,2.11211 -3.66141,2.42675 z"
           id="path70153"
           sodipodi:nodetypes="cccccccccccc" />
        <path
           style="fill:#7b0000;fill-opacity:1;stroke:#7b0000;stroke-width:0.264583px;stroke-linecap:butt;stroke-linejoin:miter;stroke-opacity:1"
           d="m -233.0582,190.26909 c -0.95999,-0.55482 -1.69206,0.29353 -2.2805,1.07595 -0.23348,1.83156 0.55649,1.68931 1.42731,1.39116 0.85351,-0.65375 1.08286,-1.49243 0.85319,-2.46711 z"
           id="path70155"
           sodipodi:nodetypes="cccc" />
        <path
           style="fill:#7b0000;fill-opacity:1;stroke:#7b0000;stroke-width:0.264583px;stroke-linecap:butt;stroke-linejoin:miter;stroke-opacity:1"
           d="m -236.99118,203.46373 c -0.31805,1.09233 0.26042,1.16004 0.70248,1.38367 1.0031,-0.43068 1.10146,-0.99707 0.97921,-1.59655 -0.77016,-0.27837 -1.24764,-0.0689 -1.68169,0.21288 z"
           id="path70157"
           sodipodi:nodetypes="cccc" />
        <path
           style="fill:#7b0000;fill-opacity:1;stroke:#7b0000;stroke-width:0.264583px;stroke-linecap:butt;stroke-linejoin:miter;stroke-opacity:1"
           d="m -230.24312,203.95334 c -2.59934,0.052 -3.17252,1.55874 -3.59755,3.1718 0.16385,2.00273 1.63917,2.51632 3.853,1.31981 1.0799,-1.407 1.20405,-4.1233 -0.25545,-4.49161 z"
           id="path70159"
           sodipodi:nodetypes="cccc" />
        <path
           style="fill:#7b0000;fill-opacity:1;stroke:#7b0000;stroke-width:0.264583px;stroke-linecap:butt;stroke-linejoin:miter;stroke-opacity:1"
           d="m -235.92682,211.2123 c -0.76039,0.2805 -0.94891,0.76284 -0.74505,1.38367 0.4552,0.63783 0.99234,0.67484 1.61783,0.0639 0.26392,-0.6767 -0.001,-1.16815 -0.87278,-1.44753 z"
           id="path70161"
           sodipodi:nodetypes="cccc" />
        <path
           style="fill:#7b0000;fill-opacity:1;stroke:#7b0000;stroke-width:0.264583px;stroke-linecap:butt;stroke-linejoin:miter;stroke-opacity:1"
           d="m -239.60952,216.61927 c -0.60129,0.55246 -1.0877,1.09993 -0.40446,1.59654 0.53418,0.14709 1.0669,0.27739 1.49012,-0.85149 -0.11749,-0.5199 -0.45747,-0.7926 -1.08566,-0.74505 z"
           id="path70163"
           sodipodi:nodetypes="cccc" />
        <path
           style="fill:#7b0000;fill-opacity:1;stroke:#7b0000;stroke-width:0.264583px;stroke-linecap:butt;stroke-linejoin:miter;stroke-opacity:1"
           d="m -240.69516,219.68463 c -0.55922,0.2837 -0.36968,0.49252 -0.40447,0.72377 0.34399,0.10433 0.68642,0.22263 1.08566,-0.1703 0.13466,-0.51332 -0.19506,-0.60449 -0.68119,-0.55347 z"
           id="path70165"
           sodipodi:nodetypes="cccc" />
        <path
           style="fill:#7b0000;fill-opacity:1;stroke:#7b0000;stroke-width:0.264583px;stroke-linecap:butt;stroke-linejoin:miter;stroke-opacity:1"
           d="m -242.76003,223.55891 c -1.27599,0.0767 -1.55806,0.84156 -1.36238,1.93715 0.74336,0.91779 1.54859,0.96943 2.40546,0.29807 0.498,-1.42163 -0.13438,-1.93896 -1.04308,-2.23522 z"
           id="path70167"
           sodipodi:nodetypes="cccc" />
        <path
           style="fill:#7b0000;fill-opacity:1;stroke:#7b0000;stroke-width:0.264583px;stroke-linecap:butt;stroke-linejoin:miter;stroke-opacity:1"
           d="m -245.52738,229.58321 c -1.37706,0.14272 -1.76087,0.96085 -1.72426,2.06487 0.64919,0.86297 1.43453,1.367 2.70348,0.59604 0.56751,-1.38017 0.0968,-2.18754 -0.97922,-2.66091 z"
           id="path70169"
           sodipodi:nodetypes="cccc" />
        <path
           style="fill:#7b0000;fill-opacity:1;stroke:#7b0000;stroke-width:0.264583px;stroke-linecap:butt;stroke-linejoin:miter;stroke-opacity:1"
           d="m -208.12564,211.31873 c -3.49391,-0.62139 -5.23801,2.56526 -5.21539,4.72578 0.91841,2.48692 2.02938,4.26884 4.93865,3.46982 3.02573,-0.62839 3.84819,-7.42446 0.27674,-8.1956 z"
           id="path70171"
           sodipodi:nodetypes="cccc" />
        <path
           style="fill:#7b0000;fill-opacity:1;stroke:#7b0000;stroke-width:0.264583px;stroke-linecap:butt;stroke-linejoin:miter;stroke-opacity:1"
           d="m -207.55089,194.56565 c -0.70977,-0.10003 -1.4711,-0.3805 -1.87328,0.59604 0.18254,2.05087 3.01304,1.67381 3.10794,2.29903 3.05971,2.25028 3.31095,6.35007 5.15152,6.51391 0.8731,0.46252 5.36676,3.14568 7.49312,-2.42675 0.2044,-0.0687 0.3303,-6.12567 -4.5129,-8.00402 -2.41309,-0.40975 -3.49011,2.07285 -6.25845,1.95843 -1.01169,-0.22718 -1.94955,-0.19597 -3.10795,-0.93664 z"
           id="path70173"
           sodipodi:nodetypes="cccccccc" />
        <path
           style="fill:#7b0000;fill-opacity:1;stroke:#7b0000;stroke-width:0.264583px;stroke-linecap:butt;stroke-linejoin:miter;stroke-opacity:1"
           d="m -224.24011,182.64478 c -1.55477,-0.0994 -2.8311,1.05418 -4.1723,1.91585 0.0807,5.49006 1.63308,4.21001 2.76734,4.8535 3.15987,-0.46209 4.69801,-3.2116 1.40496,-6.76935 z"
           id="path70175"
           sodipodi:nodetypes="cccc" />
        <path
           style="fill:#7b0000;fill-opacity:1;stroke:#7b0000;stroke-width:0.264583px;stroke-linecap:butt;stroke-linejoin:miter;stroke-opacity:1"
           d="m -176.4289,168.29716 c 2.01447,-1.68254 2.90112,-1.55847 5.44954,-1.66041 -1.33985,1.13606 -3.08883,1.77207 -5.44954,1.66041 z"
           id="path70177"
           sodipodi:nodetypes="ccc" />
        <path
           style="fill:#7b0000;fill-opacity:1;stroke:#7b0000;stroke-width:0.264583px;stroke-linecap:butt;stroke-linejoin:miter;stroke-opacity:1"
           d="m -169.19123,166.29616 c 1.30587,-1.32785 2.5731,-1.15543 4.34261,-1.23466 -0.95885,0.90024 -2.1467,1.57148 -4.34261,1.23466 z"
           id="path70179"
           sodipodi:nodetypes="ccc" />
        <path
           style="fill:#7b0000;fill-opacity:1;stroke:#7b0000;stroke-width:0.264583px;stroke-linecap:butt;stroke-linejoin:miter;stroke-opacity:1"
           d="m -159.44166,164.33773 c 1.6252,-1.57104 3.17098,-1.36788 5.32182,-1.44754 -1.29034,1.28852 -3.01029,1.86102 -5.32182,1.44754 z"
           id="path70181"
           sodipodi:nodetypes="ccc" />
        <path
           style="fill:#7b0000;fill-opacity:1;stroke:#7b0000;stroke-width:0.264583px;stroke-linecap:butt;stroke-linejoin:miter;stroke-opacity:1"
           d="m -192.88396,155.71639 c 0.17274,-0.96804 0.37532,-1.06318 1.0005,-0.61734 0.25623,0.85523 0.26618,1.29766 -0.59604,1.87328 -0.37453,0.0876 -0.31251,-0.49583 -0.40446,-1.25594 z"
           id="path70183"
           sodipodi:nodetypes="cccc" />
        <path
           style="fill:#7b0000;fill-opacity:1;stroke:#7b0000;stroke-width:0.264583px;stroke-linecap:butt;stroke-linejoin:miter;stroke-opacity:1"
           d="m -209.50932,158.24957 c 0.5347,-0.5974 1.54307,-0.77509 2.53319,-0.12773 -0.1891,0.52011 0.002,0.96258 -1.3411,1.06437 -0.5725,-0.0354 -1.10103,-0.27984 -1.19209,-0.93664 z"
           id="path70185"
           sodipodi:nodetypes="cccc" />
        <path
           style="fill:#7b0000;fill-opacity:1;stroke:#7b0000;stroke-width:0.264583px;stroke-linecap:butt;stroke-linejoin:miter;stroke-opacity:1"
           d="m -211.53161,156.31243 c 0.1725,0.24171 2.61261,0.1 3.08666,-2.40547 -0.64171,-1.65708 -1.58414,-3.05919 -3.66141,-1.87327 -0.54702,1.77881 -0.85918,3.12252 0.57475,4.27874 z"
           id="path70187"
           sodipodi:nodetypes="cccc" />
        <path
           style="fill:#7b0000;fill-opacity:1;stroke:#7b0000;stroke-width:0.264583px;stroke-linecap:butt;stroke-linejoin:miter;stroke-opacity:1"
           d="m -219.64205,149.39406 c 0.031,0.57153 -0.0809,1.19068 0.63861,1.53269 0.72,-0.0388 1.24568,-0.29962 1.40496,-0.97922 -0.29427,-0.4885 -0.64692,-0.93113 -2.04357,-0.55347 z"
           id="path70189"
           sodipodi:nodetypes="cccc" />
        <path
           style="fill:#7b0000;fill-opacity:1;stroke:#7b0000;stroke-width:0.264583px;stroke-linecap:butt;stroke-linejoin:miter;stroke-opacity:1"
           d="m -226.45398,164.21 c -0.43471,-0.17182 -0.50568,0.0639 -0.78095,0.92845 -0.20301,0.43905 -0.12099,0.94144 0.39778,1.54088 1.45344,-1.37549 0.77925,-1.86447 0.38317,-2.46933 z"
           id="path70191"
           sodipodi:nodetypes="cccc" />
        <path
           style="fill:#7b0000;fill-opacity:1;stroke:#7b0000;stroke-width:0.264583px;stroke-linecap:butt;stroke-linejoin:miter;stroke-opacity:1"
           d="m -213.85192,155.1842 c -0.92369,-0.15858 -0.85482,1.56149 -1.78813,1.72427 -1.49003,0.43754 -2.62457,-0.63989 -5.49211,0.78763 -4.34728,3.41982 -3.2695,6.74523 -2.40547,8.34461 1.41167,3.50039 3.65494,3.99794 5.854,3.61883 3.82034,-0.0758 4.18789,-3.06864 5.61984,-5.06636 0.7448,-1.25767 0.88295,-3.07094 2.29903,-4.55548 0.66848,-1.24054 -1.51899,-0.29302 -1.80942,0.36188 -1.19864,0.94266 -2.29,-0.21838 -2.74606,-1.1708 -0.095,-1.25556 1.63148,-2.27234 0.46832,-4.04458 z"
           id="path70193"
           sodipodi:nodetypes="cccccccccc" />
        <path
           style="fill:#7b0000;fill-opacity:1;stroke:#7b0000;stroke-width:0.264583px;stroke-linecap:butt;stroke-linejoin:miter;stroke-opacity:1"
           d="m -285.33277,223.33206 c 0,0 0.48167,2.66427 0.48167,2.7019 0,0.0376 1.53532,-1.82133 1.53532,-1.82133 z"
           id="path70197" />
        <path
           style="fill:#7b0000;fill-opacity:1;stroke:#7b0000;stroke-width:0.264583px;stroke-linecap:butt;stroke-linejoin:miter;stroke-opacity:1"
           d="m -179.40924,220.68284 c -0.35183,0.60574 0.087,1.34117 0.61715,1.35472 0.33094,-0.0438 0.39629,-0.93133 0.20321,-1.27946 -0.33953,-0.45582 -0.6376,-0.30158 -0.82036,-0.0753 z"
           id="path70199"
           sodipodi:nodetypes="cccc" />
        <path
           style="fill:#7b0000;fill-opacity:1;stroke:#7b0000;stroke-width:0.264583px;stroke-linecap:butt;stroke-linejoin:miter;stroke-opacity:1"
           d="m -172.80489,233.84334 c -0.79281,-0.11702 -1.03144,0.41636 -1.11263,0.87789 -0.12242,0.89262 0.89512,1.31172 1.62043,0.72617 0.20173,-0.69262 0.29401,-1.17814 -0.5078,-1.60406 z"
           id="path70201"
           sodipodi:nodetypes="cccc" />
        <path
           style="fill:#7b0000;fill-opacity:1;stroke:#7b0000;stroke-width:0.264583px;stroke-linecap:butt;stroke-linejoin:miter;stroke-opacity:1"
           d="m -173.22271,237.34582 c -0.6437,-0.22992 -1.53584,0.38057 -1.14398,1.80629 0.10626,0.5771 1.19014,0.81551 1.80628,0.15052 0.35368,-0.62602 0.47831,-1.72503 -0.6623,-1.95681 z"
           id="path70203"
           sodipodi:nodetypes="cccc" />
      </g>
      <g
         id="g1197"
         transform="translate(24.088248,46.722386)">
        <g
           id="g55343"
           style="fill:#000000;fill-opacity:1"
           transform="matrix(2.0191197,0,0,2.0191197,724.3125,11.227996)">
          <path
             id="path1039"
             style="fill:#000000;fill-opacity:1;stroke:#000000;stroke-width:0.264583px;stroke-linecap:butt;stroke-linejoin:miter;stroke-opacity:1"
             d="m -331.48518,26.26868 c -10.78577,3.544712 -13.13614,10.702887 -15.75305,18.221626 -1.8668,5.948164 2.54796,17.679606 9.87742,15.923059 3.3492,-0.762794 6.79434,-1.908987 9.82422,-3.363619 0.51258,0.779124 0.76843,2.01509 1.03251,3.235978 l 0.60666,-0.532267 0.88315,-0.244946 c 0.48618,-0.424251 0.68356,-1.079624 0.89401,-1.724443 -0.0154,0.06902 1.26613,0.09985 1.57562,0.958083 0.59004,-0.03118 0.9131,-0.367599 1.10691,-0.851628 -2.10503,-3.521538 -2.78054,-10.797357 -3.36362,-15.975769 0.34059,-0.0059 0.68156,0.05575 1.02216,-0.149344 -0.0897,-0.140324 -0.0799,-0.270912 0.12763,-0.382924 0.39791,0.02878 0.69477,-0.01451 0.89401,-0.12764 -0.0641,-0.134085 -0.0351,-0.277572 0.0424,-0.425815 0.40159,0.0771 0.43786,0.03238 0.51107,0 -0.0696,-0.628642 -0.24442,-0.90705 0.12764,-1.958536 -0.19715,0.06765 -0.31729,0.08786 -0.59582,0.04238 -0.22206,0.370919 -0.37536,0.795158 -0.894,0.936892 -0.0628,0.0849 -0.19394,0.113062 -0.34107,0.12764 -0.0787,0.277376 -0.24916,0.357254 -0.4253,0.425816 -0.49598,0.178331 -0.73493,0.0873 -0.93689,-0.04238 0.18389,-0.796097 0.63995,-1.517317 1.49035,-2.129068 0.39373,-0.184092 0.62391,-0.136599 0.85111,-0.08475 0.13655,-0.204026 0.19108,-0.490474 0.46871,-0.553453 -0.27487,-0.530868 -0.20592,-1.147858 -0.21291,-1.745631 -2.42234,0.924251 -4.80499,2.075276 -7.78351,3.794083 -0.0249,0.180472 0.38028,0.33224 -0.17828,0.548288 0,0 -2.86795,1.352801 -2.70422,1.450041 0.3308,0.196509 0.34028,0.636082 0.14986,0.593762 -1.0958,1.072462 -2.23568,2.056768 -3.49126,2.809647 0.10446,0.407962 0.0438,0.779214 -0.21291,1.106909 0.54105,-0.0036 0.85161,0.298174 0.85161,0.298174 0.10867,0.194721 -0.406,0.764829 -0.76636,0.936377 0.29006,0.111157 0.36962,0.702085 0.2558,1.107427 0.64608,-0.587042 1.05719,-0.706867 1.48984,-0.596347 0.90038,0.340748 -1.82989,1.452477 -1.53273,3.235462 1.87327,-0.986311 3.53361,-3.629279 5.19401,-4.150651 -0.084,1.562092 0.69342,3.301878 1.40507,4.917011 -3.00459,2.89532 -11.19699,3.356153 -9.96217,-4.299995 1.53947,-7.259177 5.60739,-9.586991 9.32346,-12.601815 -0.24492,-0.01801 -0.44217,-0.09662 -0.51056,-0.340548 -0.20178,-0.216887 -0.0155,-0.375513 0.0424,-0.553456 -0.2031,0.110001 -0.42149,0.158327 -0.68109,0.04238 0.10644,-0.244803 0.10644,-0.47177 0,-0.681096 0.25315,-0.484811 0.557,-0.918874 1.02166,-1.192175 -0.29734,-0.224324 -0.39283,-0.631272 -0.55346,-0.979268 -0.025,0.313436 0.0251,0.630002 -0.17002,0.936895 -0.55242,0.251936 -0.94813,-0.01898 -1.4051,-0.08527 0.38976,-0.598744 0.72478,-1.244005 1.39166,-1.537891 -0.26866,-0.18542 -0.56179,-0.34331 -0.62529,-0.761193 0.13565,-0.776213 0.32374,-1.503669 0.85164,-1.915647 -0.30046,-0.569859 -0.3076,-1.118727 -0.21291,-1.660363 z m -1.14514,4.22765 c 0.0516,-0.0014 0.1026,-0.0013 0.15346,0 -0.59889,0.661326 -1.10146,1.336085 -1.14412,2.076876 -0.71934,-0.322178 -1.67436,0.07503 -1.86655,-0.150379 1.21057,-1.54631 2.08232,-1.905114 2.85721,-1.926497 z m -1.59269,3.522265 c -0.4028,0.493768 -0.90776,0.756923 -0.66196,1.535306 -0.64106,0.408734 -1.00036,0.182774 -1.32498,-0.120404 0.38563,-0.817462 0.96155,-1.397132 1.98694,-1.414902 z m 7.28536,5.117518 c -0.15907,0.321117 -0.14097,0.642131 0.18087,0.963247 -0.40889,0.602478 -0.89871,0.790525 -1.86656,0.993738 0.38791,-1.02894 0.74041,-1.565034 1.68569,-1.956985 z m -17.70126,13.727843 c 0.4831,0.732192 1.04701,1.466778 0.93329,2.348177 -0.0297,0.818504 -0.44503,0.654044 -0.7829,0.933275 -0.57428,-1.574064 -0.36256,-2.257896 -0.15039,-3.281452 z" />
          <path
             id="path29163"
             style="fill:#000000;fill-opacity:1;stroke:#000000;stroke-width:0.999999px;stroke-linecap:butt;stroke-linejoin:miter;stroke-opacity:1"
             d="m -874.05273,52.041016 c -3.95044,4.546964 -7.67789,9.435309 -12.73047,12.80664 -3.26223,-1.440264 -5.76459,0.437255 -8.20703,2.574219 -0.83585,-3.593696 -0.71848,-7.187554 0.64453,-10.78125 -3.51307,3.224636 -6.67372,6.964763 -11.10352,8.849609 0.34167,5.144992 0.67883,10.290219 -1.12695,15.28711 -0.83951,-0.232328 -1.66256,-0.110174 -2.57422,-1.929688 0.0378,-4.280851 -0.39629,-8.730704 2.25195,-12.068359 -1.50852,0.697281 -2.54477,1.394515 -4.82617,2.091797 -1.28731,0.437707 -2.57402,0.778082 -3.86133,0.160156 -3.66039,2.365266 -7.44951,4.434207 -11.74804,5.310547 0.51639,5.929859 0.808,11.762989 -0.16016,17.056641 -2.61721,-2.236785 -4.77562,-4.645697 -9.01172,-6.275391 -0.4131,-3.218234 -0.98583,-6.438016 -0.16016,-9.65625 -21.91525,-14.68834 -37.3823,-8.12122 -53.74414,-4.503906 -0.91271,0.109379 -0.96931,-1.784379 -1.28906,-3.058594 -5.31288,2.57938 -11.36698,7.436831 -13.83788,1.287109 -0.3421,0.838946 0.4217,2.369371 -1.4473,2.253906 -0.3689,3.554174 -1.7919,5.867455 -5.7929,5.148438 l 1.3671,-2.251953 c -0.4481,-2.601404 1.9517,-5.203284 4.0235,-7.804688 -8.8089,3.740516 -15.8187,7.008993 -19.5508,-0.884765 -6.7602,17.563547 -15.5264,32.309036 -23.9766,47.548826 -6.4116,-7.68399 -12.7672,-18.082607 -18.3437,-30.332029 -0.7667,2.11271 -1.5045,4.266207 -3.3789,4.828125 -2.0738,-1.425816 -3.2342,-4.430987 -4.5059,-7.242188 -0.8766,2.697732 -2.4868,4.548651 -4.3437,6.115234 0.4308,2.971019 0.9862,5.908344 0.3203,9.171876 -1.6271,-0.894074 -3.1188,-1.5175 -5.4707,-3.861329 0.058,1.588642 -0.7799,2.802697 -1.6094,4.021485 2.7903,2.452807 5.7193,4.650406 7.5625,8.851566 l -3.8223,-0.0566 c -1.7736,-0.011 -3.6456,-3.20005 -5.3496,-5.093754 -0.034,1.592704 -0.6086,2.961424 -1.9297,4.023434 -1.8226,-0.15371 -3.8268,-1.57827 -5.7929,-2.73633 0.627,1.18002 1.3519,2.361 0.8047,3.54102 -0.3364,0.62987 -1.7923,0.85696 -4.0235,0.80469 0.8482,0.89547 2.6465,1.43562 2.4141,2.73633 3.5444,1.54788 2.0945,3.21077 2.7363,4.82617 -5.2714,-5.48671 -11.6218,-5.26226 -19.4707,2.89648 0.9279,-3.45347 -0.1069,-7.14754 7.2402,-9.8164 -3.6748,-1.37951 -8.4467,-2.90186 -7.1289,-7.496098 3.554,1.304399 8.1739,0.381472 11.3125,6.531248 -0.571,-2.58182 -2.1361,-5.589304 -1.2871,-7.562498 0.3455,-0.683678 1.2304,-1.058367 2.0918,-1.447265 -5.656,-2.252761 -6.1252,-4.507005 -6.4355,-6.759766 3.8795,1.716537 8.706,2.777128 8.8496,7.080078 0.8838,-0.998063 2.0361,-0.656415 3.2187,-0.160156 -3.8977,-5.367122 -4.9773,-11.949588 -23.6543,-10.941406 -55.3124,8.428142 -63.9964,61.884483 -65.1699,78.845703 -1.9684,-19.60979 -6.3487,-37.84123 -2.414,-60.82422 -1.5807,1.27696 -3.1271,2.71132 -5.1485,1.93164 -0.9252,-2.36004 -0.5733,-4.72004 -0.1601,-7.080076 0.2264,0.452477 -5.5813,2.997506 -6.5977,2.251956 -0.1572,-0.11532 -3.0795,6.27539 -3.541,6.27539 -0.7197,0.76852 -1.7167,0.42317 -2.7344,0 -0.8138,-1.90428 -0.1538,-3.17642 0,-4.66602 -1.1798,1.12655 -2.1318,2.48165 -4.0234,2.89649 1.007,1.09296 1.5122,3.02116 1.6094,5.63086 -0.3689,2.69362 -0.9904,4.66669 -2.4141,4.3457 -0.725,-1.18658 -0.981,-2.91067 -0.6445,-5.31055 l -1.125,0.64453 c -1.4666,-1.11382 -0.6989,-2.45126 -0.8047,-3.70117 -2.521,1.83591 -5.0416,3.20426 -7.5625,3.37891 3.6702,38.09485 16.3832,69.96948 22.0449,112.63867 2.3009,-3.155 1.858,-3.62323 5.1484,-1.28906 -0.094,-2.36932 1.0728,-3.5174 2.5743,-4.34375 -2.3658,-1.88206 -2.7142,-5.61978 -2.4141,-8.68946 1.4485,-1.19975 2.7309,-1.12279 4.0234,-1.12695 v 4.66797 c 1.9097,1.42439 4.4719,1.93367 4.9883,5.30859 0.9937,-1.9581 2.434,-2.13189 4.0313,-1.67578 -1.9852,-11.92055 -4.8225,-24.06268 -3.7754,-35.15625 3.1279,9.00743 6.5583,18.14924 13.582,24.1211 3.7254,0.55037 7.5077,0.76765 10.9434,3.05664 0.513,1.28729 1.2404,2.57404 0,3.86132 13.605,8.86221 79.787,-0.68752 79.9726,-85.76562 1.2873,0.40826 2.5742,-1.05877 3.8613,1.77148 4.6367,4.73991 8.3114,10.1209 12.0684,15.44727 -8.479,19.67037 -16.4103,39.47596 -27.1934,58.57031 4.3681,-4.71036 8.5878,-10.15946 13.3555,-12.87109 -1.3613,4.78527 -3.7083,9.48094 -6.2363,14.16015 1.8683,-1.09203 5.2053,-2.7219 5.914,-1.28906 -0.2509,-3.51059 -0.2155,-6.88747 1.127,-9.65429 1.8137,-1.76575 3.6156,-3.80851 6.918,-4.34376 0.3846,1.47365 0.5259,3.08677 0.1621,4.98829 -0.2438,0.9069 -1.3833,1.1168 -2.5742,1.28711 0.4428,0.40663 0.8326,0.82966 0.6425,1.44726 0.015,1.28106 -1.3234,2.20152 -2.8964,3.0586 1.151,0.18134 2.2716,0.43005 2.8964,1.76953 0.041,1.0191 -1.5784,2.03753 -2.7343,3.05664 2.7362,-0.18282 6.0695,-1.78447 8.0449,-0.16016 l 18.666,-38.13672 c 0.6321,-0.78341 1.4694,-1.62398 2.8496,-0.3125 8.4234,7.80131 15.9598,16.87995 23.5391,25.73633 -0.3981,-1.50715 -1.3205,-3.31322 -0.3203,-4.02148 0.9638,-1.56102 2.7875,-0.25363 4.3437,0.16015 -1.9219,-4.17636 -3.3176,-8.20874 -2.8965,-11.74609 2.861,-0.051 5.7754,0.38312 8.8496,2.25195 1.8153,-0.40864 1.7688,-2.21348 1.9317,-3.86133 -8.2109,-10.92194 -17.2661,-21.08455 -23.4942,-33.79101 5.525,-10.97537 10.4977,-23.87656 19.3106,-31.2168 3.206,-1.43574 5.2635,-1.07868 6.7578,0.16016 -2.0549,1.65243 -4.2746,3.52894 -5.4707,8.04492 -0.7638,-0.66203 -2.6641,-0.31225 -4.3438,-0.16016 1.7255,2.4308 0.7675,5.08607 0,7.72461 4.3229,-3.34554 9.4652,-10.99855 12.711,-8.68945 l 10.62107,57.44531 c -1.31834,2.47787 -4.23334,1.36677 -6.75977,1.12695 2.80559,2.70829 4.21928,5.81902 3.70118,9.49219 3.58586,-4.30169 6.25368,-4.35321 9.01172,-4.82617 -0.77288,6.64157 -5.1185,6.2482 -9.33203,8.76953 1.32321,-0.46951 2.43016,0.068 2.89648,0.5625 -0.95781,2.12581 -2.25441,3.09469 -6.11525,3.86133 1.42168,1.95621 0.80974,4.3923 0.4824,6.75977 27.21116,-10.47512 61.81967,-28.62977 71.60551,-77.88086 0.6531,-2.66608 2.17807,-1.40808 3.3789,-1.60938 l 1.28711,10.61914 c -0.19086,1.84884 -1.02697,2.85871 -2.73437,2.73633 l 3.21875,58.57227 c 0.89711,-3.43304 1.46349,-7.5924 3.05664,-9.49415 2.52185,2.48043 4.98865,5.38218 8.68945,-1.12695 1.00664,-1.08114 1.70715,-2.69655 3.86133,-1.76953 l -1.93164,4.66602 c 2.56577,-2.17991 5.38459,-5.21619 7.24219,-4.98829 -2.036,-9.95103 -1.11288,-19.08011 -0.51954,-28.30078 7.93701,-5.8528 15.06098,-10.25382 22.24219,-13.53711 l 13.22266,33.32813 c 2.08104,-1.4873 3.62822,-4.8889 7.53515,-4.8457 -1.06321,-2.04521 -1.578,-3.87113 -1.12695,-5.31055 0.8795,-0.62027 1.79215,-0.89856 2.89649,0.80469 -0.61384,-1.42937 -1.00168,-3.43926 1.60937,-3.21875 -1.08355,-1.35784 -2.20781,-2.67686 -4.18359,-3.2168 0.10507,-0.72576 0.27591,-1.40595 1.12695,-1.60938 0.48945,-1.08997 0.14126,-1.94105 0.16016,-2.89648 0.89333,-0.78236 2.12465,-1.18219 3.48437,-0.73047 0.64195,0.48346 0.72946,4.39237 0.69922,7.48828 2.41958,-0.57825 4.93908,-0.95642 7.88477,-0.48242 -3.61898,-9.62445 -7.54975,-17.21647 -10.61914,-30.41211 l 3.06445,-0.80469 1.43945,-21.24023 -8.6875,4.66601 c -5.82293,-10.389576 -8.66566,-32.222069 -11.72851,-55.287104 z m -10.94141,14.408203 c 0.35981,0.936812 1.44504,0.875567 0.22656,3.982422 1.58215,0.502579 2.57387,-0.03137 3.30078,-1.025391 0.36359,3.740852 -1.48001,5.520035 -2.95898,7.623047 -0.39005,-1.489387 -1.52698,-2.697338 -0.3418,-4.777344 -0.87231,0.937599 -1.74292,1.754982 -2.61523,0.796875 -0.38412,-2.330955 0.86533,-4.480591 2.38867,-6.599609 z m -132.84376,10.568359 c 0.5267,0.0072 0.9139,0.298017 1.0371,1.025391 -0.9817,4.040617 -3.7424,6.585732 -6.5371,8.386719 0.6457,-2.186268 1.0083,-4.376196 0.584,-6.294922 0.9405,-0.999606 3.46,-3.137291 4.916,-3.117188 z m 106.09571,5.609375 c 1.17517,0.0068 1.93155,1.604367 2.39844,4.302735 -0.31748,3.196044 -2.08415,3.493194 -3.86914,3.753906 -0.89734,-2.827896 -1.77178,-5.650344 0.68359,-7.84961 0.2812,-0.13988 0.54318,-0.208429 0.78711,-0.207031 z m -90.09371,2.816406 c 0.4789,1.618919 2.08385,2.595357 0.6445,5.310547 -1.1123,1.782599 -2.7994,1.410341 -4.5059,0.964844 0.8662,-3.039368 2.4145,-4.542583 3.8614,-6.275391 z m 104.32613,2.054688 c 4.39106,9.69676 6.91575,20.193793 9.89844,30.494143 -4.62712,3.81543 -9.2537,7.35128 -13.88086,8.41992 0.89862,-13.12705 0.89825,-26.581748 3.98242,-38.914063 z m -42.55468,0.455078 c 5.0728,1.167092 6.43384,5.708936 8.30664,9.785156 -2.65179,-0.885044 -5.28274,-1.590976 -8.08008,-3.640625 -0.99681,-3.071369 -0.54937,-4.539256 -0.22656,-6.144531 z m -82.88475,5.447266 c 1.0744,-0.01587 2.1356,0.816525 2.2871,1.699218 -1.3258,0.561895 -1.9727,2.050433 -2.7363,3.378907 -0.5849,-1.058812 -1.9546,-2.399405 -1.4883,-3.601563 0.4602,-1.058993 1.2023,-1.465787 1.9375,-1.476562 z m 15.7617,0.787109 c -0.3126,1.00224 0.053,2.005595 0.248,3.007812 -0.2248,-0.844017 -0.2227,-1.786768 -1.205,-2.302734 0.4291,-0.156094 0.7986,-0.355615 0.957,-0.705078 z m -70.7598,4.773438 c 4.922,1.440322 6.0802,5.473762 7.7246,9.171872 -2.651,-0.0363 -3.2384,-2.20628 -6.4375,-3.21875 -1.5675,-1.82194 -1.2252,-3.91608 -1.2871,-5.953122 z m 102.03128,1.560542 c 38.0194,0.20492 20.62588,43.48621 1.7168,58.31836 -2.43908,-19.41874 -4.78587,-38.83711 -4.55078,-58.25586 0.97705,-0.0457 1.92152,-0.0674 2.83398,-0.0625 z m -145.38868,1.05079 c 0.8554,-0.008 2.276,0.30871 4.5781,1.25 2.4434,1.23419 2.5204,4.30814 0.02,4.52539 -1.7898,0.2742 -4.3657,-2.10027 -5.6524,-4.52539 v 0 c -0.237,-0.43882 -0.2816,-1.23816 1.0527,-1.25 z m 17.8985,13.39843 c 0.5299,-0.0102 1.3061,0.205 2.4492,0.72461 1.211,1.76803 1.6782,3.21829 0.6425,4.02344 -1.2844,-0.97378 -2.9272,-1.48195 -4.3437,-2.97656 0.1289,-1.01623 0.305,-1.75328 1.252,-1.77149 z m -100.6407,0.082 c 0.3013,2.07975 1.2255,5.98403 1.0723,10.94141 -1.7048,-0.60467 -3.5177,-0.74639 -4.3457,-5.15039 0.1504,-3.17525 1.3715,-4.36743 3.2734,-5.79102 z m 78.9531,3.86133 c 26.2264,0.60726 30.2521,33.01411 8.3672,60.01953 -14.5858,13.54084 -45.1758,23.04508 -45.8593,-15.76953 1.0889,-11.09158 8.0229,-40.03613 37.4921,-44.25 z m -82.7246,7.63086 c 2.3444,-0.017 3.0218,1.29999 3.2344,2.98828 -0.2891,3.12269 -2.6879,3.10878 -4.1094,3.9668 -1.028,-3.42379 0.7914,-5.3165 -0.2363,-6.86328 0.4065,-0.0596 0.7764,-0.0894 1.1113,-0.0918 z m 176.375,43.2168 c 3.9269,1.36904 8.4992,4.44739 7.9239,8.44726 -0.7054,-0.62942 -4.3057,-1.77868 -6.3145,-2.17187 -3.0184,-2.50553 -1.5129,-4.25686 -1.6094,-6.27539 z m 52.23832,5.68945 c 0.0918,1.57695 -0.89195,4.23098 -2.73047,7.73828 -1.39245,-0.9138 -3.2168,-0.87824 -5.14062,-0.62304 1.58831,-4.32451 5.20199,-5.2836 7.87109,-7.11524 z m -179.46872,13.52735 c 0.7073,0.004 1.439,0.24015 2.2011,0.73632 1.2415,2.12745 1.6056,4.12889 0.7247,5.95313 -1.4717,-2.88731 -5.0338,-2.34156 -5.8731,-5.30859 0.9338,-0.89528 1.9133,-1.38647 2.9473,-1.38086 z m -10.6328,5.02734 c 2.9791,0.0159 5.423,1.37013 7.8222,2.83594 1.0282,1.99618 2.0374,3.98971 1.1387,5.68945 -2.8367,1.09632 -10.5251,-3.39732 -10.4688,-8.41992 0.5184,-0.0744 1.0203,-0.10808 1.5079,-0.10547 z m 13.3164,6.45312 c 0.6367,-0.0144 1.5565,0.18141 2.9257,0.70704 2.2456,2.22001 2.9888,3.77266 2.504,4.77929 -3.1715,0.003 -5.9577,-0.66338 -6.877,-4.56445 0.2343,-0.48985 0.5746,-0.90243 1.4473,-0.92188 z"
             transform="scale(0.26458333)" />
          <path
             id="path50599"
             style="fill:#000000;fill-opacity:1;stroke:#000000;stroke-width:0.999999px;stroke-linecap:butt;stroke-linejoin:miter;stroke-opacity:1"
             d="m -782.51367,43.607422 c -13.81161,2.225945 -22.77621,5.606019 -41.43555,6.677734 l -0.32031,2.332032 c -9.29855,5.317574 -20.80469,8.428791 -31.69922,12.15039 0.22526,1.829541 -0.12437,3.340663 -1.26367,4.41211 1.77108,1.201033 2.57879,4.524152 3.64258,7.28125 -1.24014,2.088614 -2.85802,3.675 -5.00782,4.550781 1.97651,0.298582 3.33484,1.295021 4.09766,2.958984 -0.59172,4.630443 -3.1905,7.701676 -5.00781,11.378906 14.1219,-3.963031 28.47696,-13.909503 39.59765,-15.929687 -9.96895,22.982698 -16.91726,51.037098 -23.99023,77.066408 3.26691,1.43366 5.68142,-1.92197 8.36719,-0.32227 0.41529,0.54549 -0.59677,1.72614 -1.04688,2.65625 1.60165,-1.88607 3.59971,-1.26511 4.74805,-2.2539 1.19841,-1.95477 3.28208,-1.4003 5.06836,-1.68946 0.0227,1.47503 0.36612,2.95076 -0.72461,4.42578 -1.06583,0.12768 -2.11366,0.28042 -3.70117,-0.32226 -0.13191,0.69728 -0.58382,1.39451 0.0801,2.0918 -1.26026,0.006 -2.55662,-0.0475 -4.34374,-0.88477 0.55538,1.39068 0.43556,2.44366 -0.0801,3.29883 1.87755,0.80311 3.79758,1.34929 5.4707,3.3789 -0.23962,0.99278 -0.30975,2.02814 -1.36719,2.81641 -0.23811,0.81938 -0.92295,1.1043 -1.6914,1.28711 1.55157,1.53891 1.21343,3.70675 1.60937,5.63086 14.32509,-10.76874 30.34019,-22.96686 50.6875,-30.65234 -0.52577,-1.6842 -0.80496,-3.41352 -0.16016,-5.31055 -1.06815,0.9648 -2.67354,0.74598 -4.26367,0.5625 0.61259,-1.70737 0.59812,-3.66538 2.17188,-4.98828 -1.02732,-2.23095 0.0681,-4.15693 0.40234,-6.19336 -7.37306,1.42444 -12.18021,6.62901 -19.71289,7.88281 -1.02644,0.061 -0.84186,-1.08722 -0.96484,-1.92969 -5.23782,2.22096 -8.88737,7.47343 -13.03321,8.52735 -0.685,-0.4032 -1.31717,-0.86996 -1.36914,-2.01172 10.20741,-24.02612 19.41438,-48.584837 31.05664,-71.845705 1.04973,-0.394972 2.11559,-0.486536 3.21875,0.160156 -0.40758,-3.421296 0.73212,-6.155398 2.0918,-8.769531 -3.46552,-0.511412 -5.38796,1.037973 -8.20703,0.804688 -0.79759,-1.260477 -0.35329,-2.520776 -0.16016,-3.78125 1.62766,-0.255345 3.19378,-0.377232 4.42383,0.242187 0.73606,-1.708456 1.20405,-3.48026 3.13867,-4.908203 -1.08941,0.209575 -2.20914,0.245745 -3.3789,0 -0.0529,0.601788 -0.37809,1.085676 -0.80469,1.527344 -1.09958,0.606856 -2.19925,0.335947 -3.29883,0.322265 -0.15874,-1.079168 -0.15887,-2.137517 0.32227,-3.136719 2.07103,-0.142675 4.21994,-1.627945 6.07422,-0.49414 -0.67446,-2.11025 -0.88286,-3.982101 -0.60352,-6.425781 -0.34167,-0.85903 0.13174,-1.427238 1.36719,-2.574219 z m -12.86914,14.576172 c 1.24093,-0.0191 2.17427,0.146818 2.03906,0.640625 -0.49179,1.795052 -5.97276,5.83509 -7.33789,4.097656 -1.70941,-0.675462 -0.72565,-2.249842 0.0566,-3.755859 0.25231,-0.403701 3.17397,-0.95059 5.24219,-0.982422 z m -5.3418,25.511718 c 0.42407,-0.02802 2.56152,5.448468 2.48828,7.785157 -0.0839,1.916817 -6.38286,2.923951 -6.31445,2.105469 2.47022,-2.220923 0.5264,-7.301455 3.75586,-9.728516 0.006,-0.107115 0.0304,-0.159475 0.0703,-0.16211 z m -23.53516,66.226568 c 1.99535,-0.007 4.1306,0.29655 4.25391,0.85156 -1.39793,1.20137 -2.08915,2.8455 -5.06836,3.05859 -0.92912,0 -2.91589,-2.91985 -2.57422,-3.29883 0.37015,-0.41038 1.83674,-0.6056 3.38867,-0.61132 z"
             transform="scale(0.26458333)" />
        </g>
        <g
           id="g55351"
           transform="matrix(2.0397313,0,0,2.1170749,729.35094,5.8334333)"
           style="fill:#ffffff;fill-opacity:1">
          <path
             id="path55345"
             style="fill:#ffffff;fill-opacity:1;stroke:#000000;stroke-width:0.264583px;stroke-linecap:butt;stroke-linejoin:miter;stroke-opacity:1"
             d="m -331.48518,26.26868 c -10.78577,3.544712 -13.13614,10.702887 -15.75305,18.221626 -1.8668,5.948164 2.54796,17.679606 9.87742,15.923059 3.3492,-0.762794 6.79434,-1.908987 9.82422,-3.363619 0.51258,0.779124 0.76843,2.01509 1.03251,3.235978 l 0.60666,-0.532267 0.88315,-0.244946 c 0.48618,-0.424251 0.68356,-1.079624 0.89401,-1.724443 -0.0154,0.06902 1.26613,0.09985 1.57562,0.958083 0.59004,-0.03118 0.9131,-0.367599 1.10691,-0.851628 -2.10503,-3.521538 -2.78054,-10.797357 -3.36362,-15.975769 0.34059,-0.0059 0.68156,0.05575 1.02216,-0.149344 -0.0897,-0.140324 -0.0799,-0.270912 0.12763,-0.382924 0.39791,0.02878 0.69477,-0.01451 0.89401,-0.12764 -0.0641,-0.134085 -0.0351,-0.277572 0.0424,-0.425815 0.40159,0.0771 0.43786,0.03238 0.51107,0 -0.0696,-0.628642 -0.24442,-0.90705 0.12764,-1.958536 -0.19715,0.06765 -0.31729,0.08786 -0.59582,0.04238 -0.22206,0.370919 -0.37536,0.795158 -0.894,0.936892 -0.0628,0.0849 -0.19394,0.113062 -0.34107,0.12764 -0.0787,0.277376 -0.24916,0.357254 -0.4253,0.425816 -0.49598,0.178331 -0.73493,0.0873 -0.93689,-0.04238 0.18389,-0.796097 0.63995,-1.517317 1.49035,-2.129068 0.39373,-0.184092 0.62391,-0.136599 0.85111,-0.08475 0.13655,-0.204026 0.19108,-0.490474 0.46871,-0.553453 -0.27487,-0.530868 -0.20592,-1.147858 -0.21291,-1.745631 -2.42234,0.924251 -4.80499,2.075276 -7.78351,3.794083 -0.0249,0.180472 0.38028,0.33224 -0.17828,0.548288 0,0 -2.86795,1.352801 -2.70422,1.450041 0.3308,0.196509 0.34028,0.636082 0.14986,0.593762 -1.0958,1.072462 -2.23568,2.056768 -3.49126,2.809647 0.10446,0.407962 0.0438,0.779214 -0.21291,1.106909 0.54105,-0.0036 0.85161,0.298174 0.85161,0.298174 0.10867,0.194721 -0.406,0.764829 -0.76636,0.936377 0.29006,0.111157 0.36962,0.702085 0.2558,1.107427 0.64608,-0.587042 1.05719,-0.706867 1.48984,-0.596347 0.90038,0.340748 -1.82989,1.452477 -1.53273,3.235462 1.87327,-0.986311 3.53361,-3.629279 5.19401,-4.150651 -0.084,1.562092 0.69342,3.301878 1.40507,4.917011 -3.00459,2.89532 -11.19699,3.356153 -9.96217,-4.299995 1.53947,-7.259177 5.60739,-9.586991 9.32346,-12.601815 -0.24492,-0.01801 -0.44217,-0.09662 -0.51056,-0.340548 -0.20178,-0.216887 -0.0155,-0.375513 0.0424,-0.553456 -0.2031,0.110001 -0.42149,0.158327 -0.68109,0.04238 0.10644,-0.244803 0.10644,-0.47177 0,-0.681096 0.25315,-0.484811 0.557,-0.918874 1.02166,-1.192175 -0.29734,-0.224324 -0.39283,-0.631272 -0.55346,-0.979268 -0.025,0.313436 0.0251,0.630002 -0.17002,0.936895 -0.55242,0.251936 -0.94813,-0.01898 -1.4051,-0.08527 0.38976,-0.598744 0.72478,-1.244005 1.39166,-1.537891 -0.26866,-0.18542 -0.56179,-0.34331 -0.62529,-0.761193 0.13565,-0.776213 0.32374,-1.503669 0.85164,-1.915647 -0.30046,-0.569859 -0.3076,-1.118727 -0.21291,-1.660363 z m -1.14514,4.22765 c 0.0516,-0.0014 0.1026,-0.0013 0.15346,0 -0.59889,0.661326 -1.10146,1.336085 -1.14412,2.076876 -0.71934,-0.322178 -1.67436,0.07503 -1.86655,-0.150379 1.21057,-1.54631 2.08232,-1.905114 2.85721,-1.926497 z m -1.59269,3.522265 c -0.4028,0.493768 -0.90776,0.756923 -0.66196,1.535306 -0.64106,0.408734 -1.00036,0.182774 -1.32498,-0.120404 0.38563,-0.817462 0.96155,-1.397132 1.98694,-1.414902 z m 7.28536,5.117518 c -0.15907,0.321117 -0.14097,0.642131 0.18087,0.963247 -0.40889,0.602478 -0.89871,0.790525 -1.86656,0.993738 0.38791,-1.02894 0.74041,-1.565034 1.68569,-1.956985 z m -17.70126,13.727843 c 0.4831,0.732192 1.04701,1.466778 0.93329,2.348177 -0.0297,0.818504 -0.44503,0.654044 -0.7829,0.933275 -0.57428,-1.574064 -0.36256,-2.257896 -0.15039,-3.281452 z" />
          <path
             id="path55347"
             style="fill:#ffffff;fill-opacity:1;stroke:#000000;stroke-width:0.999999px;stroke-linecap:butt;stroke-linejoin:miter;stroke-opacity:1"
             d="m -874.05273,52.041016 c -3.95044,4.546964 -7.67789,9.435309 -12.73047,12.80664 -3.26223,-1.440264 -5.76459,0.437255 -8.20703,2.574219 -0.83585,-3.593696 -0.71848,-7.187554 0.64453,-10.78125 -3.51307,3.224636 -6.67372,6.964763 -11.10352,8.849609 0.34167,5.144992 0.67883,10.290219 -1.12695,15.28711 -0.83951,-0.232328 -1.66256,-0.110174 -2.57422,-1.929688 0.0378,-4.280851 -0.39629,-8.730704 2.25195,-12.068359 -1.50852,0.697281 -2.54477,1.394515 -4.82617,2.091797 -1.28731,0.437707 -2.57402,0.778082 -3.86133,0.160156 -3.66039,2.365266 -7.44951,4.434207 -11.74804,5.310547 0.51639,5.929859 0.808,11.762989 -0.16016,17.056641 -2.61721,-2.236785 -4.77562,-4.645697 -9.01172,-6.275391 -0.4131,-3.218234 -0.98583,-6.438016 -0.16016,-9.65625 -21.91525,-14.68834 -37.3823,-8.12122 -53.74414,-4.503906 -0.91271,0.109379 -0.96931,-1.784379 -1.28906,-3.058594 -5.31288,2.57938 -11.36698,7.436831 -13.83788,1.287109 -0.3421,0.838946 0.4217,2.369371 -1.4473,2.253906 -0.3689,3.554174 -1.7919,5.867455 -5.7929,5.148438 l 1.3671,-2.251953 c -0.4481,-2.601404 1.9517,-5.203284 4.0235,-7.804688 -8.8089,3.740516 -15.8187,7.008993 -19.5508,-0.884765 -6.7602,17.563547 -15.5264,32.309036 -23.9766,47.548826 -6.4116,-7.68399 -12.7672,-18.082607 -18.3437,-30.332029 -0.7667,2.11271 -1.5045,4.266207 -3.3789,4.828125 -2.0738,-1.425816 -3.2342,-4.430987 -4.5059,-7.242188 -0.8766,2.697732 -2.4868,4.548651 -4.3437,6.115234 0.4308,2.971019 0.9862,5.908344 0.3203,9.171876 -1.6271,-0.894074 -3.1188,-1.5175 -5.4707,-3.861329 0.058,1.588642 -0.7799,2.802697 -1.6094,4.021485 2.7903,2.452807 5.7193,4.650406 7.5625,8.851566 l -3.8223,-0.0566 c -1.7736,-0.011 -3.6456,-3.20005 -5.3496,-5.093754 -0.034,1.592704 -0.6086,2.961424 -1.9297,4.023434 -1.8226,-0.15371 -3.8268,-1.57827 -5.7929,-2.73633 0.627,1.18002 1.3519,2.361 0.8047,3.54102 -0.3364,0.62987 -1.7923,0.85696 -4.0235,0.80469 0.8482,0.89547 2.6465,1.43562 2.4141,2.73633 3.5444,1.54788 2.0945,3.21077 2.7363,4.82617 -5.2714,-5.48671 -11.6218,-5.26226 -19.4707,2.89648 0.9279,-3.45347 -0.1069,-7.14754 7.2402,-9.8164 -3.6748,-1.37951 -8.4467,-2.90186 -7.1289,-7.496098 3.554,1.304399 8.1739,0.381472 11.3125,6.531248 -0.571,-2.58182 -2.1361,-5.589304 -1.2871,-7.562498 0.3455,-0.683678 1.2304,-1.058367 2.0918,-1.447265 -5.656,-2.252761 -6.1252,-4.507005 -6.4355,-6.759766 3.8795,1.716537 8.706,2.777128 8.8496,7.080078 0.8838,-0.998063 2.0361,-0.656415 3.2187,-0.160156 -3.8977,-5.367122 -4.9773,-11.949588 -23.6543,-10.941406 -55.3124,8.428142 -63.9964,61.884483 -65.1699,78.845703 -1.9684,-19.60979 -6.3487,-37.84123 -2.414,-60.82422 -1.5807,1.27696 -3.1271,2.71132 -5.1485,1.93164 -0.9252,-2.36004 -0.5733,-4.72004 -0.1601,-7.080076 0.2264,0.452477 -5.5813,2.997506 -6.5977,2.251956 -0.1572,-0.11532 -3.0795,6.27539 -3.541,6.27539 -0.7197,0.76852 -1.7167,0.42317 -2.7344,0 -0.8138,-1.90428 -0.1538,-3.17642 0,-4.66602 -1.1798,1.12655 -2.1318,2.48165 -4.0234,2.89649 1.007,1.09296 1.5122,3.02116 1.6094,5.63086 -0.3689,2.69362 -0.9904,4.66669 -2.4141,4.3457 -0.725,-1.18658 -0.981,-2.91067 -0.6445,-5.31055 l -1.125,0.64453 c -1.4666,-1.11382 -0.6989,-2.45126 -0.8047,-3.70117 -2.521,1.83591 -5.0416,3.20426 -7.5625,3.37891 3.6702,38.09485 16.3832,69.96948 22.0449,112.63867 2.3009,-3.155 1.858,-3.62323 5.1484,-1.28906 -0.094,-2.36932 1.0728,-3.5174 2.5743,-4.34375 -2.3658,-1.88206 -2.7142,-5.61978 -2.4141,-8.68946 1.4485,-1.19975 2.7309,-1.12279 4.0234,-1.12695 v 4.66797 c 1.9097,1.42439 4.4719,1.93367 4.9883,5.30859 0.9937,-1.9581 2.434,-2.13189 4.0313,-1.67578 -1.9852,-11.92055 -4.8225,-24.06268 -3.7754,-35.15625 3.1279,9.00743 6.5583,18.14924 13.582,24.1211 3.7254,0.55037 7.5077,0.76765 10.9434,3.05664 0.513,1.28729 1.2404,2.57404 0,3.86132 13.605,8.86221 79.787,-0.68752 79.9726,-85.76562 1.2873,0.40826 2.5742,-1.05877 3.8613,1.77148 4.6367,4.73991 8.3114,10.1209 12.0684,15.44727 -8.479,19.67037 -16.4103,39.47596 -27.1934,58.57031 4.3681,-4.71036 8.5878,-10.15946 13.3555,-12.87109 -1.3613,4.78527 -3.7083,9.48094 -6.2363,14.16015 1.8683,-1.09203 5.2053,-2.7219 5.914,-1.28906 -0.2509,-3.51059 -0.2155,-6.88747 1.127,-9.65429 1.8137,-1.76575 3.6156,-3.80851 6.918,-4.34376 0.3846,1.47365 0.5259,3.08677 0.1621,4.98829 -0.2438,0.9069 -1.3833,1.1168 -2.5742,1.28711 0.4428,0.40663 0.8326,0.82966 0.6425,1.44726 0.015,1.28106 -1.3234,2.20152 -2.8964,3.0586 1.151,0.18134 2.2716,0.43005 2.8964,1.76953 0.041,1.0191 -1.5784,2.03753 -2.7343,3.05664 2.7362,-0.18282 6.0695,-1.78447 8.0449,-0.16016 l 18.666,-38.13672 c 0.6321,-0.78341 1.4694,-1.62398 2.8496,-0.3125 8.4234,7.80131 15.9598,16.87995 23.5391,25.73633 -0.3981,-1.50715 -1.3205,-3.31322 -0.3203,-4.02148 0.9638,-1.56102 2.7875,-0.25363 4.3437,0.16015 -1.9219,-4.17636 -3.3176,-8.20874 -2.8965,-11.74609 2.861,-0.051 5.7754,0.38312 8.8496,2.25195 1.8153,-0.40864 1.7688,-2.21348 1.9317,-3.86133 -8.2109,-10.92194 -17.2661,-21.08455 -23.4942,-33.79101 5.525,-10.97537 10.4977,-23.87656 19.3106,-31.2168 3.206,-1.43574 5.2635,-1.07868 6.7578,0.16016 -2.0549,1.65243 -4.2746,3.52894 -5.4707,8.04492 -0.7638,-0.66203 -2.6641,-0.31225 -4.3438,-0.16016 1.7255,2.4308 0.7675,5.08607 0,7.72461 4.3229,-3.34554 9.4652,-10.99855 12.711,-8.68945 l 10.62107,57.44531 c -1.31834,2.47787 -4.23334,1.36677 -6.75977,1.12695 2.80559,2.70829 4.21928,5.81902 3.70118,9.49219 3.58586,-4.30169 6.25368,-4.35321 9.01172,-4.82617 -0.77288,6.64157 -5.1185,6.2482 -9.33203,8.76953 1.32321,-0.46951 2.43016,0.068 2.89648,0.5625 -0.95781,2.12581 -2.25441,3.09469 -6.11525,3.86133 1.42168,1.95621 0.80974,4.3923 0.4824,6.75977 27.21116,-10.47512 61.81967,-28.62977 71.60551,-77.88086 0.6531,-2.66608 2.17807,-1.40808 3.3789,-1.60938 l 1.28711,10.61914 c -0.19086,1.84884 -1.02697,2.85871 -2.73437,2.73633 l 3.21875,58.57227 c 0.89711,-3.43304 1.46349,-7.5924 3.05664,-9.49415 2.52185,2.48043 4.98865,5.38218 8.68945,-1.12695 1.00664,-1.08114 1.70715,-2.69655 3.86133,-1.76953 l -1.93164,4.66602 c 2.56577,-2.17991 5.38459,-5.21619 7.24219,-4.98829 -2.036,-9.95103 -1.11288,-19.08011 -0.51954,-28.30078 7.93701,-5.8528 15.06098,-10.25382 22.24219,-13.53711 l 13.22266,33.32813 c 2.08104,-1.4873 3.62822,-4.8889 7.53515,-4.8457 -1.06321,-2.04521 -1.578,-3.87113 -1.12695,-5.31055 0.8795,-0.62027 1.79215,-0.89856 2.89649,0.80469 -0.61384,-1.42937 -1.00168,-3.43926 1.60937,-3.21875 -1.08355,-1.35784 -2.20781,-2.67686 -4.18359,-3.2168 0.10507,-0.72576 0.27591,-1.40595 1.12695,-1.60938 0.48945,-1.08997 0.14126,-1.94105 0.16016,-2.89648 0.89333,-0.78236 2.12465,-1.18219 3.48437,-0.73047 0.64195,0.48346 0.72946,4.39237 0.69922,7.48828 2.41958,-0.57825 4.93908,-0.95642 7.88477,-0.48242 -3.61898,-9.62445 -7.54975,-17.21647 -10.61914,-30.41211 l 3.06445,-0.80469 1.43945,-21.24023 -8.6875,4.66601 c -5.82293,-10.389576 -8.66566,-32.222069 -11.72851,-55.287104 z m -10.94141,14.408203 c 0.35981,0.936812 1.44504,0.875567 0.22656,3.982422 1.58215,0.502579 2.57387,-0.03137 3.30078,-1.025391 0.36359,3.740852 -1.48001,5.520035 -2.95898,7.623047 -0.39005,-1.489387 -1.52698,-2.697338 -0.3418,-4.777344 -0.87231,0.937599 -1.74292,1.754982 -2.61523,0.796875 -0.38412,-2.330955 0.86533,-4.480591 2.38867,-6.599609 z m -132.84376,10.568359 c 0.5267,0.0072 0.9139,0.298017 1.0371,1.025391 -0.9817,4.040617 -3.7424,6.585732 -6.5371,8.386719 0.6457,-2.186268 1.0083,-4.376196 0.584,-6.294922 0.9405,-0.999606 3.46,-3.137291 4.916,-3.117188 z m 106.09571,5.609375 c 1.17517,0.0068 1.93155,1.604367 2.39844,4.302735 -0.31748,3.196044 -2.08415,3.493194 -3.86914,3.753906 -0.89734,-2.827896 -1.77178,-5.650344 0.68359,-7.84961 0.2812,-0.13988 0.54318,-0.208429 0.78711,-0.207031 z m -90.09371,2.816406 c 0.4789,1.618919 2.08385,2.595357 0.6445,5.310547 -1.1123,1.782599 -2.7994,1.410341 -4.5059,0.964844 0.8662,-3.039368 2.4145,-4.542583 3.8614,-6.275391 z m 104.32613,2.054688 c 4.39106,9.69676 6.91575,20.193793 9.89844,30.494143 -4.62712,3.81543 -9.2537,7.35128 -13.88086,8.41992 0.89862,-13.12705 0.89825,-26.581748 3.98242,-38.914063 z m -42.55468,0.455078 c 5.0728,1.167092 6.43384,5.708936 8.30664,9.785156 -2.65179,-0.885044 -5.28274,-1.590976 -8.08008,-3.640625 -0.99681,-3.071369 -0.54937,-4.539256 -0.22656,-6.144531 z m -82.88475,5.447266 c 1.0744,-0.01587 2.1356,0.816525 2.2871,1.699218 -1.3258,0.561895 -1.9727,2.050433 -2.7363,3.378907 -0.5849,-1.058812 -1.9546,-2.399405 -1.4883,-3.601563 0.4602,-1.058993 1.2023,-1.465787 1.9375,-1.476562 z m 15.7617,0.787109 c -0.3126,1.00224 0.053,2.005595 0.248,3.007812 -0.2248,-0.844017 -0.2227,-1.786768 -1.205,-2.302734 0.4291,-0.156094 0.7986,-0.355615 0.957,-0.705078 z m -70.7598,4.773438 c 4.922,1.440322 6.0802,5.473762 7.7246,9.171872 -2.651,-0.0363 -3.2384,-2.20628 -6.4375,-3.21875 -1.5675,-1.82194 -1.2252,-3.91608 -1.2871,-5.953122 z m 102.03128,1.560542 c 38.0194,0.20492 20.62588,43.48621 1.7168,58.31836 -2.43908,-19.41874 -4.78587,-38.83711 -4.55078,-58.25586 0.97705,-0.0457 1.92152,-0.0674 2.83398,-0.0625 z m -145.38868,1.05079 c 0.8554,-0.008 2.276,0.30871 4.5781,1.25 2.4434,1.23419 2.5204,4.30814 0.02,4.52539 -1.7898,0.2742 -4.3657,-2.10027 -5.6524,-4.52539 v 0 c -0.237,-0.43882 -0.2816,-1.23816 1.0527,-1.25 z m 17.8985,13.39843 c 0.5299,-0.0102 1.3061,0.205 2.4492,0.72461 1.211,1.76803 1.6782,3.21829 0.6425,4.02344 -1.2844,-0.97378 -2.9272,-1.48195 -4.3437,-2.97656 0.1289,-1.01623 0.305,-1.75328 1.252,-1.77149 z m -100.6407,0.082 c 0.3013,2.07975 1.2255,5.98403 1.0723,10.94141 -1.7048,-0.60467 -3.5177,-0.74639 -4.3457,-5.15039 0.1504,-3.17525 1.3715,-4.36743 3.2734,-5.79102 z m 78.9531,3.86133 c 26.2264,0.60726 30.2521,33.01411 8.3672,60.01953 -14.5858,13.54084 -45.1758,23.04508 -45.8593,-15.76953 1.0889,-11.09158 8.0229,-40.03613 37.4921,-44.25 z m -82.7246,7.63086 c 2.3444,-0.017 3.0218,1.29999 3.2344,2.98828 -0.2891,3.12269 -2.6879,3.10878 -4.1094,3.9668 -1.028,-3.42379 0.7914,-5.3165 -0.2363,-6.86328 0.4065,-0.0596 0.7764,-0.0894 1.1113,-0.0918 z m 176.375,43.2168 c 3.9269,1.36904 8.4992,4.44739 7.9239,8.44726 -0.7054,-0.62942 -4.3057,-1.77868 -6.3145,-2.17187 -3.0184,-2.50553 -1.5129,-4.25686 -1.6094,-6.27539 z m 52.23832,5.68945 c 0.0918,1.57695 -0.89195,4.23098 -2.73047,7.73828 -1.39245,-0.9138 -3.2168,-0.87824 -5.14062,-0.62304 1.58831,-4.32451 5.20199,-5.2836 7.87109,-7.11524 z m -179.46872,13.52735 c 0.7073,0.004 1.439,0.24015 2.2011,0.73632 1.2415,2.12745 1.6056,4.12889 0.7247,5.95313 -1.4717,-2.88731 -5.0338,-2.34156 -5.8731,-5.30859 0.9338,-0.89528 1.9133,-1.38647 2.9473,-1.38086 z m -10.6328,5.02734 c 2.9791,0.0159 5.423,1.37013 7.8222,2.83594 1.0282,1.99618 2.0374,3.98971 1.1387,5.68945 -2.8367,1.09632 -10.5251,-3.39732 -10.4688,-8.41992 0.5184,-0.0744 1.0203,-0.10808 1.5079,-0.10547 z m 13.3164,6.45312 c 0.6367,-0.0144 1.5565,0.18141 2.9257,0.70704 2.2456,2.22001 2.9888,3.77266 2.504,4.77929 -3.1715,0.003 -5.9577,-0.66338 -6.877,-4.56445 0.2343,-0.48985 0.5746,-0.90243 1.4473,-0.92188 z"
             transform="scale(0.26458333)" />
          <path
             id="path55349"
             style="fill:#ffffff;fill-opacity:1;stroke:#000000;stroke-width:0.999999px;stroke-linecap:butt;stroke-linejoin:miter;stroke-opacity:1"
             d="m -782.51367,43.607422 c -13.81161,2.225945 -22.77621,5.606019 -41.43555,6.677734 l -0.32031,2.332032 c -9.29855,5.317574 -20.80469,8.428791 -31.69922,12.15039 0.22526,1.829541 -0.12437,3.340663 -1.26367,4.41211 1.77108,1.201033 2.57879,4.524152 3.64258,7.28125 -1.24014,2.088614 -2.85802,3.675 -5.00782,4.550781 1.97651,0.298582 3.33484,1.295021 4.09766,2.958984 -0.59172,4.630443 -3.1905,7.701676 -5.00781,11.378906 14.1219,-3.963031 28.47696,-13.909503 39.59765,-15.929687 -9.96895,22.982698 -16.91726,51.037098 -23.99023,77.066408 3.26691,1.43366 5.68142,-1.92197 8.36719,-0.32227 0.41529,0.54549 -0.59677,1.72614 -1.04688,2.65625 1.60165,-1.88607 3.59971,-1.26511 4.74805,-2.2539 1.19841,-1.95477 3.28208,-1.4003 5.06836,-1.68946 0.0227,1.47503 0.36612,2.95076 -0.72461,4.42578 -1.06583,0.12768 -2.11366,0.28042 -3.70117,-0.32226 -0.13191,0.69728 -0.58382,1.39451 0.0801,2.0918 -1.26026,0.006 -2.55662,-0.0475 -4.34374,-0.88477 0.55538,1.39068 0.43556,2.44366 -0.0801,3.29883 1.87755,0.80311 3.79758,1.34929 5.4707,3.3789 -0.23962,0.99278 -0.30975,2.02814 -1.36719,2.81641 -0.23811,0.81938 -0.92295,1.1043 -1.6914,1.28711 1.55157,1.53891 1.21343,3.70675 1.60937,5.63086 14.32509,-10.76874 30.34019,-22.96686 50.6875,-30.65234 -0.52577,-1.6842 -0.80496,-3.41352 -0.16016,-5.31055 -1.06815,0.9648 -2.67354,0.74598 -4.26367,0.5625 0.61259,-1.70737 0.59812,-3.66538 2.17188,-4.98828 -1.02732,-2.23095 0.0681,-4.15693 0.40234,-6.19336 -7.37306,1.42444 -12.18021,6.62901 -19.71289,7.88281 -1.02644,0.061 -0.84186,-1.08722 -0.96484,-1.92969 -5.23782,2.22096 -8.88737,7.47343 -13.03321,8.52735 -0.685,-0.4032 -1.31717,-0.86996 -1.36914,-2.01172 10.20741,-24.02612 19.41438,-48.584837 31.05664,-71.845705 1.04973,-0.394972 2.11559,-0.486536 3.21875,0.160156 -0.40758,-3.421296 0.73212,-6.155398 2.0918,-8.769531 -3.46552,-0.511412 -5.38796,1.037973 -8.20703,0.804688 -0.79759,-1.260477 -0.35329,-2.520776 -0.16016,-3.78125 1.62766,-0.255345 3.19378,-0.377232 4.42383,0.242187 0.73606,-1.708456 1.20405,-3.48026 3.13867,-4.908203 -1.08941,0.209575 -2.20914,0.245745 -3.3789,0 -0.0529,0.601788 -0.37809,1.085676 -0.80469,1.527344 -1.09958,0.606856 -2.19925,0.335947 -3.29883,0.322265 -0.15874,-1.079168 -0.15887,-2.137517 0.32227,-3.136719 2.07103,-0.142675 4.21994,-1.627945 6.07422,-0.49414 -0.67446,-2.11025 -0.88286,-3.982101 -0.60352,-6.425781 -0.34167,-0.85903 0.13174,-1.427238 1.36719,-2.574219 z m -12.86914,14.576172 c 1.24093,-0.0191 2.17427,0.146818 2.03906,0.640625 -0.49179,1.795052 -5.97276,5.83509 -7.33789,4.097656 -1.70941,-0.675462 -0.72565,-2.249842 0.0566,-3.755859 0.25231,-0.403701 3.17397,-0.95059 5.24219,-0.982422 z m -5.3418,25.511718 c 0.42407,-0.02802 2.56152,5.448468 2.48828,7.785157 -0.0839,1.916817 -6.38286,2.923951 -6.31445,2.105469 2.47022,-2.220923 0.5264,-7.301455 3.75586,-9.728516 0.006,-0.107115 0.0304,-0.159475 0.0703,-0.16211 z m -23.53516,66.226568 c 1.99535,-0.007 4.1306,0.29655 4.25391,0.85156 -1.39793,1.20137 -2.08915,2.8455 -5.06836,3.05859 -0.92912,0 -2.91589,-2.91985 -2.57422,-3.29883 0.37015,-0.41038 1.83674,-0.6056 3.38867,-0.61132 z"
             transform="scale(0.26458333)" />
        </g>
      </g>
    </g>
  </g>
</svg>
